<?xml version="1.0" encoding="utf-8"?>
<!-- Generator: Adobe Illustrator 16.0.0, SVG Export Plug-In . SVG Version: 6.00 Build 0)  -->
<!DOCTYPE svg PUBLIC "-//W3C//DTD SVG 1.1//EN" "http://www.w3.org/Graphics/SVG/1.1/DTD/svg11.dtd">
<svg version="1.1" id="navbar_x5F_logo" xmlns="http://www.w3.org/2000/svg" xmlns:xlink="http://www.w3.org/1999/xlink" x="0px"
	 y="0px" width="269px" height="36px" viewBox="0 0 269 36" enable-background="new 0 0 269 36" xml:space="preserve">
<g>
	<g>
		<g>
			<path fill="#F7B52B" d="M49.644,21.763c1.625,0,2.439-0.521,2.439-1.56c0-0.322-0.162-0.569-0.482-0.737
				c-0.324-0.167-0.729-0.319-1.222-0.45c-0.491-0.132-1.022-0.268-1.593-0.407c-0.572-0.14-1.104-0.333-1.596-0.583
				c-0.49-0.248-0.896-0.574-1.219-0.978c-0.323-0.404-0.483-0.898-0.483-1.484c0-0.587,0.087-1.093,0.265-1.518
				c0.174-0.425,0.438-0.791,0.789-1.099c0.778-0.66,1.855-0.99,3.232-0.99c1.1,0,2.161,0.184,3.188,0.55
				c0.205,0.073,0.363,0.19,0.473,0.352c0.11,0.162,0.165,0.34,0.165,0.538c0,0.198-0.084,0.386-0.253,0.56
				c-0.169,0.177-0.334,0.266-0.495,0.266s-0.358-0.038-0.593-0.111c-0.703-0.22-1.473-0.329-2.309-0.329s-1.471,0.146-1.9,0.44
				c-0.434,0.292-0.649,0.645-0.649,1.055c0,0.41,0.165,0.714,0.495,0.912c0.329,0.197,0.736,0.362,1.219,0.493
				c0.484,0.133,1.017,0.265,1.596,0.397c0.578,0.131,1.109,0.314,1.594,0.549c1.143,0.586,1.713,1.495,1.713,2.726
				c0,0.939-0.351,1.701-1.055,2.288c-0.764,0.645-1.824,0.966-3.188,0.966c-1.48,0-2.814-0.329-4.002-0.988
				c-0.248-0.177-0.374-0.396-0.374-0.66c0-0.264,0.081-0.488,0.243-0.671c0.162-0.183,0.336-0.274,0.528-0.274
				c0.189,0,0.417,0.059,0.681,0.175C47.701,21.572,48.632,21.763,49.644,21.763z"/>
			<path fill="#F7B52B" d="M49.775,23.876c-1.519,0-2.909-0.345-4.129-1.024l-0.025-0.015c-0.318-0.224-0.486-0.528-0.486-0.877
				c0-0.33,0.104-0.614,0.307-0.846c0.213-0.243,0.461-0.366,0.729-0.366c0.229,0,0.487,0.065,0.79,0.199
				c0.809,0.364,1.713,0.549,2.684,0.549c2.174,0,2.174-0.973,2.174-1.294c0-0.222-0.107-0.377-0.341-0.5
				c-0.305-0.16-0.698-0.304-1.166-0.43c-0.482-0.129-1.017-0.266-1.589-0.405c-0.59-0.144-1.146-0.348-1.652-0.604
				c-0.522-0.267-0.963-0.619-1.305-1.051c-0.359-0.448-0.543-1.003-0.543-1.648c0-0.619,0.096-1.164,0.284-1.619
				c0.19-0.462,0.481-0.866,0.861-1.199c0.825-0.701,1.972-1.055,3.407-1.055c1.123,0,2.227,0.189,3.275,0.565
				c0.261,0.093,0.463,0.244,0.605,0.452c0.14,0.207,0.211,0.438,0.211,0.688c0,0.267-0.111,0.519-0.327,0.744
				c-0.221,0.23-0.45,0.347-0.688,0.347c-0.19,0-0.41-0.04-0.673-0.123c-0.673-0.21-1.424-0.317-2.229-0.317
				c-0.777,0-1.367,0.133-1.752,0.394c-0.358,0.242-0.531,0.515-0.531,0.835c0,0.317,0.115,0.534,0.365,0.683
				c0.307,0.184,0.695,0.342,1.152,0.466c0.48,0.131,1.014,0.264,1.584,0.394c0.595,0.135,1.15,0.327,1.65,0.569
				c1.24,0.635,1.865,1.633,1.865,2.965c0,1.017-0.389,1.854-1.152,2.491C52.326,23.53,51.197,23.876,49.775,23.876z M45.916,22.394
				c1.14,0.63,2.438,0.95,3.859,0.95c1.292,0,2.307-0.306,3.017-0.906c0.647-0.538,0.96-1.219,0.96-2.083
				c0-1.132-0.514-1.946-1.57-2.489c-0.457-0.222-0.976-0.399-1.53-0.526c-0.577-0.131-1.118-0.266-1.604-0.398
				c-0.506-0.138-0.939-0.313-1.288-0.522c-0.407-0.246-0.624-0.64-0.624-1.141c0-0.503,0.258-0.933,0.766-1.277
				c0.475-0.322,1.165-0.485,2.051-0.485c0.857,0,1.662,0.114,2.388,0.342c0.206,0.064,0.38,0.098,0.514,0.098
				c0.105,0,0.224-0.099,0.303-0.182c0.121-0.126,0.18-0.249,0.18-0.377c0-0.143-0.04-0.271-0.119-0.389
				c-0.077-0.114-0.19-0.196-0.343-0.25c-0.994-0.354-2.035-0.534-3.098-0.534c-1.308,0-2.335,0.312-3.059,0.926
				c-0.316,0.277-0.56,0.613-0.719,0.998c-0.16,0.391-0.243,0.867-0.243,1.416c0,0.529,0.14,0.96,0.425,1.317
				c0.297,0.371,0.678,0.677,1.133,0.906c0.471,0.239,0.986,0.428,1.537,0.561c0.576,0.142,1.114,0.279,1.599,0.408
				c0.507,0.137,0.935,0.296,1.274,0.473c0.518,0.271,0.627,0.678,0.627,0.973c0,0.833-0.471,1.827-2.705,1.827
				c-1.046,0-2.022-0.2-2.902-0.595c-0.229-0.101-0.42-0.153-0.571-0.153c-0.112,0-0.22,0.061-0.329,0.185
				c-0.117,0.134-0.176,0.295-0.176,0.495C45.666,22.07,45.693,22.232,45.916,22.394z"/>
		</g>
		<g>
			<path fill="#F7B52B" d="M63.779,11.958c1.699,0,3.062,0.535,4.088,1.605c1.025,1.085,1.539,2.491,1.539,4.22
				c0,1.73-0.514,3.137-1.539,4.221c-1.026,1.07-2.389,1.604-4.088,1.604c-1.715,0-3.078-0.534-4.09-1.604
				c-1.025-1.069-1.539-2.475-1.539-4.221c0-1.744,0.514-3.15,1.539-4.22C60.701,12.493,62.064,11.958,63.779,11.958z
				 M61.326,20.872c0.346,0.316,0.734,0.547,1.166,0.692c0.434,0.147,0.858,0.22,1.275,0.22c0.418,0,0.842-0.073,1.275-0.22
				c0.434-0.145,0.824-0.374,1.178-0.681c0.789-0.718,1.184-1.758,1.184-3.121c0-1.319-0.395-2.345-1.184-3.079
				c-0.66-0.599-1.474-0.9-2.441-0.9c-1.582,0-2.683,0.711-3.299,2.131c-0.219,0.513-0.329,1.133-0.329,1.857
				c0,0.726,0.11,1.346,0.329,1.858C60.701,20.144,60.983,20.559,61.326,20.872z"/>
			<path fill="#F7B52B" d="M63.779,23.876c-1.785,0-3.225-0.568-4.283-1.689c-1.067-1.114-1.613-2.596-1.613-4.404
				c0-1.807,0.546-3.288,1.615-4.404c1.057-1.12,2.496-1.687,4.281-1.687c1.766,0,3.209,0.567,4.28,1.687
				c1.069,1.133,1.612,2.614,1.612,4.404c0,1.792-0.543,3.273-1.609,4.404C66.988,23.309,65.544,23.876,63.779,23.876z
				 M63.779,12.225c-1.631,0-2.941,0.513-3.896,1.521c-0.973,1.015-1.465,2.374-1.465,4.038c0,1.666,0.492,3.024,1.464,4.038
				c0.956,1.01,2.267,1.523,3.897,1.523c1.615,0,2.927-0.514,3.896-1.523c0.972-1.027,1.464-2.387,1.464-4.038
				s-0.492-3.008-1.466-4.038C66.706,12.738,65.394,12.225,63.779,12.225z M63.767,22.051c-0.445,0-0.904-0.078-1.359-0.233
				c-0.467-0.158-0.891-0.41-1.26-0.749c-0.371-0.338-0.679-0.788-0.912-1.334c-0.233-0.544-0.35-1.204-0.35-1.963
				c0-0.758,0.116-1.417,0.35-1.962c0.66-1.522,1.852-2.293,3.543-2.293c1.03,0,1.912,0.327,2.619,0.971
				c0.845,0.783,1.273,1.883,1.273,3.274c0,1.435-0.43,2.551-1.273,3.317c-0.381,0.333-0.807,0.581-1.271,0.738
				C64.669,21.973,64.212,22.051,63.767,22.051z M63.779,14.05c-1.48,0-2.48,0.645-3.055,1.972c-0.203,0.475-0.307,1.065-0.307,1.75
				c0,0.687,0.104,1.277,0.307,1.752c0.206,0.477,0.469,0.863,0.783,1.151c0.314,0.289,0.676,0.503,1.07,0.637
				c0.803,0.273,1.574,0.273,2.379,0.001c0.398-0.135,0.764-0.347,1.086-0.63c0.727-0.659,1.098-1.644,1.098-2.921
				c0-1.237-0.371-2.206-1.104-2.882C65.423,14.322,64.686,14.05,63.779,14.05z"/>
		</g>
		<g>
			<path fill="#F7B52B" d="M74.857,7.517c0.191-0.189,0.43-0.286,0.715-0.286c0.286,0,0.523,0.096,0.715,0.286
				c0.19,0.192,0.285,0.434,0.285,0.727v14.267c0,0.277-0.095,0.512-0.285,0.704c-0.191,0.189-0.429,0.284-0.715,0.284
				c-0.285,0-0.523-0.095-0.715-0.284c-0.189-0.192-0.284-0.427-0.284-0.704V8.244C74.573,7.951,74.667,7.709,74.857,7.517z"/>
			<path fill="#F7B52B" d="M75.572,23.767c-0.357,0-0.662-0.124-0.902-0.365c-0.242-0.241-0.363-0.541-0.363-0.891V8.244
				c0-0.365,0.121-0.673,0.363-0.915c0.24-0.242,0.545-0.363,0.902-0.363s0.662,0.122,0.902,0.363
				c0.242,0.242,0.363,0.55,0.363,0.915v14.267c0,0.35-0.121,0.65-0.363,0.891C76.234,23.643,75.929,23.767,75.572,23.767z
				 M75.572,7.498c-0.214,0-0.387,0.068-0.525,0.208c-0.14,0.14-0.209,0.316-0.209,0.538v14.267c0,0.208,0.067,0.375,0.209,0.515
				c0.139,0.139,0.312,0.208,0.525,0.208c0.215,0,0.387-0.069,0.526-0.208c0.139-0.14,0.208-0.307,0.208-0.515V8.244
				c0-0.222-0.069-0.398-0.208-0.538C75.958,7.566,75.787,7.498,75.572,7.498z"/>
		</g>
		<g>
			<path fill="#F7B52B" d="M84.904,20.862c0.631,0.586,1.51,0.879,2.639,0.879c1.127,0,2.074-0.19,2.834-0.572
				c0.265-0.131,0.491-0.197,0.684-0.197c0.189,0,0.373,0.081,0.548,0.241c0.177,0.163,0.265,0.346,0.265,0.55
				c0,0.382-0.159,0.657-0.473,0.825c-0.314,0.168-0.598,0.312-0.846,0.428c-0.25,0.118-0.52,0.221-0.813,0.308
				c-0.661,0.19-1.423,0.285-2.286,0.285c-1.802,0-3.203-0.504-4.198-1.517c-0.997-1.012-1.496-2.447-1.496-4.309
				c0-1.612,0.417-2.952,1.253-4.022c0.938-1.202,2.271-1.803,4.001-1.803c1.642,0,2.938,0.558,3.892,1.671
				c0.895,1.041,1.342,2.331,1.342,3.869c0,0.28-0.092,0.514-0.276,0.704c-0.183,0.19-0.429,0.285-0.735,0.285h-7.453
				C83.899,19.485,84.273,20.275,84.904,20.862z M87.014,13.651c-1.306,0-2.257,0.579-2.857,1.737
				c-0.221,0.41-0.345,0.9-0.374,1.474h6.484c-0.059-1.041-0.439-1.862-1.143-2.462C88.539,13.9,87.835,13.651,87.014,13.651z"/>
			<path fill="#F7B52B" d="M87.455,23.876c-1.869,0-3.346-0.538-4.391-1.596c-1.041-1.058-1.57-2.571-1.57-4.497
				c0-1.665,0.44-3.074,1.311-4.187c0.984-1.265,2.401-1.905,4.21-1.905c1.716,0,3.091,0.593,4.094,1.764
				c0.932,1.084,1.403,2.445,1.403,4.042c0,0.35-0.116,0.647-0.348,0.889c-0.234,0.244-0.548,0.367-0.928,0.367h-7.145
				c0.145,0.791,0.477,1.433,0.994,1.913c0.575,0.536,1.402,0.809,2.457,0.809c1.082,0,1.995-0.183,2.717-0.543
				c0.639-0.319,1.098-0.31,1.53,0.085c0.231,0.214,0.349,0.464,0.349,0.746c0,0.479-0.211,0.845-0.612,1.06
				c-0.319,0.169-0.606,0.316-0.86,0.434c-0.258,0.123-0.543,0.23-0.85,0.322C89.132,23.776,88.339,23.876,87.455,23.876z
				 M87.014,12.225c-1.657,0-2.897,0.556-3.79,1.7c-0.795,1.018-1.197,2.315-1.197,3.858c0,1.781,0.477,3.168,1.419,4.123
				c0.94,0.954,2.288,1.438,4.009,1.438c0.834,0,1.578-0.094,2.211-0.277c0.278-0.083,0.541-0.182,0.773-0.292
				c0.244-0.114,0.525-0.257,0.834-0.423c0.23-0.124,0.335-0.304,0.335-0.59c0-0.129-0.059-0.242-0.18-0.354
				c-0.124-0.114-0.247-0.17-0.368-0.17c-0.15,0-0.338,0.056-0.563,0.169c-0.796,0.398-1.789,0.599-2.954,0.599
				c-1.194,0-2.143-0.319-2.82-0.95c-0.674-0.628-1.08-1.481-1.203-2.539l-0.035-0.296h7.752c0.232,0,0.41-0.067,0.545-0.205
				c0.135-0.139,0.199-0.31,0.199-0.519c0-1.466-0.428-2.709-1.277-3.695C89.793,12.741,88.587,12.225,87.014,12.225z
				 M90.549,17.127h-7.046l0.014-0.279c0.031-0.607,0.168-1.142,0.404-1.586c0.646-1.245,1.687-1.876,3.093-1.876
				c0.882,0,1.649,0.272,2.284,0.81c0.758,0.648,1.172,1.54,1.235,2.65L90.549,17.127z M84.072,16.595h5.905
				c-0.101-0.837-0.437-1.493-1.024-1.994c-0.542-0.46-1.177-0.683-1.938-0.683c-1.208,0-2.065,0.52-2.62,1.592
				C84.228,15.819,84.12,16.183,84.072,16.595z"/>
		</g>
		<g>
			<path fill="#F7B52B" d="M97.568,12.75c1.23-0.527,2.505-0.792,3.824-0.792c1.493,0,2.652,0.455,3.472,1.363
				c0.733,0.791,1.101,1.781,1.101,2.967v6.223c0,0.277-0.098,0.512-0.298,0.704c-0.197,0.189-0.435,0.284-0.714,0.284
				c-0.277,0-0.514-0.095-0.703-0.284c-0.191-0.192-0.285-0.427-0.285-0.704v-0.571c-0.396,0.41-0.929,0.792-1.596,1.143
				c-0.666,0.352-1.511,0.527-2.539,0.527c-1.011,0-1.854-0.292-2.527-0.877c-0.703-0.617-1.054-1.422-1.054-2.419
				c0-1.084,0.409-1.934,1.229-2.549c0.894-0.674,2.168-1.012,3.826-1.012h2.66v-0.176c0-0.981-0.242-1.682-0.727-2.1
				c-0.484-0.416-1.225-0.625-2.221-0.625c-0.85,0-1.824,0.175-2.924,0.527c-0.117,0.029-0.248,0.044-0.396,0.044
				c-0.145,0-0.3-0.077-0.461-0.231c-0.16-0.154-0.24-0.392-0.24-0.714C96.996,13.154,97.183,12.911,97.568,12.75z M98.248,20.093
				c0,1.172,0.777,1.757,2.33,1.757c0.688,0,1.33-0.168,1.923-0.505s1.081-0.718,1.464-1.143v-1.846h-2.396
				c-1.043,0-1.856,0.131-2.442,0.395C98.54,19.016,98.248,19.463,98.248,20.093z"/>
			<path fill="#F7B52B" d="M99.83,23.876c-1.071,0-1.98-0.318-2.701-0.945c-0.764-0.666-1.146-1.547-1.146-2.62
				c0-1.168,0.448-2.097,1.336-2.763c0.938-0.707,2.278-1.065,3.986-1.065h2.391c-0.014-0.849-0.225-1.456-0.631-1.807
				c-0.432-0.373-1.119-0.562-2.047-0.562c-0.818,0-1.774,0.172-2.842,0.514c-0.154,0.039-0.31,0.057-0.479,0.057
				c-0.216,0-0.432-0.102-0.645-0.304c-0.214-0.206-0.324-0.51-0.324-0.907c0-0.301,0.129-0.714,0.734-0.971
				c1.258-0.539,2.58-0.812,3.93-0.812c1.564,0,2.8,0.489,3.67,1.45c0.775,0.837,1.168,1.896,1.168,3.146v6.223
				c0,0.353-0.129,0.653-0.379,0.896c-0.247,0.238-0.551,0.36-0.898,0.36c-0.352,0-0.65-0.124-0.893-0.365
				c-0.234-0.233-0.355-0.524-0.363-0.861c-0.34,0.273-0.742,0.534-1.204,0.776C101.79,23.688,100.896,23.876,99.83,23.876z
				 M101.304,17.017c-1.59,0-2.824,0.322-3.666,0.958c-0.758,0.568-1.125,1.332-1.125,2.337c0,0.924,0.316,1.651,0.965,2.219
				c0.621,0.539,1.412,0.813,2.352,0.813c0.977,0,1.791-0.168,2.416-0.498c0.639-0.337,1.152-0.706,1.525-1.093l0.458-0.475v1.232
				c0,0.208,0.067,0.375,0.206,0.515c0.143,0.139,0.31,0.208,0.518,0.208s0.382-0.07,0.53-0.211c0.144-0.14,0.216-0.307,0.216-0.512
				v-6.223c0-1.112-0.348-2.049-1.03-2.785c-0.767-0.849-1.867-1.278-3.276-1.278c-1.277,0-2.529,0.258-3.721,0.769
				c-0.364,0.154-0.411,0.338-0.411,0.481c0,0.246,0.055,0.421,0.159,0.521c0.106,0.102,0.204,0.157,0.277,0.157
				c0.125,0,0.238-0.012,0.332-0.035c1.104-0.354,2.115-0.536,2.988-0.536c1.059,0,1.863,0.232,2.396,0.691
				c0.542,0.469,0.816,1.243,0.816,2.301v0.442H101.304z M100.578,22.119c-2.146,0-2.597-1.103-2.597-2.025
				c0-0.731,0.36-1.28,1.036-1.584c0.618-0.278,1.478-0.419,2.552-0.419h2.66v2.214l-0.068,0.076
				c-0.398,0.445-0.913,0.847-1.528,1.196C102.001,21.935,101.31,22.119,100.578,22.119z M101.569,18.622
				c-0.999,0-1.784,0.125-2.333,0.372c-0.492,0.222-0.723,0.57-0.723,1.099c0,0.639,0.215,1.491,2.064,1.491
				c0.639,0,1.244-0.158,1.792-0.471c0.529-0.302,0.977-0.643,1.327-1.016v-1.476H101.569z"/>
		</g>
		<g>
			<path fill="#F7B52B" d="M119.945,21.939c-1.086,1.113-2.337,1.669-3.759,1.669c-1.407,0-2.624-0.497-3.649-1.494
				c-1.112-1.099-1.671-2.542-1.671-4.331c0-1.759,0.559-3.194,1.671-4.308c1.012-1.011,2.228-1.518,3.649-1.518
				s2.673,0.558,3.759,1.671V8.244c0-0.293,0.095-0.535,0.286-0.727c0.19-0.189,0.429-0.286,0.714-0.286s0.525,0.096,0.717,0.286
				c0.189,0.192,0.284,0.434,0.284,0.727v14.267c0,0.277-0.095,0.512-0.284,0.704c-0.191,0.189-0.432,0.284-0.717,0.284
				s-0.523-0.095-0.714-0.284c-0.191-0.192-0.286-0.427-0.286-0.704V21.939z M119.945,15.476c-0.996-1.099-2.155-1.648-3.475-1.648
				c-1.67,0-2.775,0.747-3.318,2.242c-0.191,0.498-0.285,1.07-0.285,1.714c0,1.262,0.343,2.25,1.033,2.969
				c0.631,0.659,1.488,0.989,2.57,0.989c1.319,0,2.479-0.55,3.475-1.648V15.476z"/>
			<path fill="#F7B52B" d="M116.186,23.876c-1.474,0-2.763-0.529-3.835-1.571c-1.162-1.146-1.752-2.667-1.752-4.521
				c0-1.823,0.59-3.335,1.749-4.496c1.06-1.059,2.349-1.595,3.838-1.595c1.294,0,2.465,0.444,3.492,1.322V8.244
				c0-0.365,0.124-0.673,0.364-0.915c0.241-0.242,0.545-0.363,0.902-0.363s0.661,0.122,0.902,0.363
				c0.242,0.242,0.364,0.55,0.364,0.915v14.267c0,0.35-0.122,0.65-0.364,0.891c-0.241,0.241-0.545,0.365-0.902,0.365
				s-0.661-0.124-0.902-0.365c-0.232-0.23-0.354-0.516-0.361-0.848C118.652,23.432,117.48,23.876,116.186,23.876z M116.186,12.225
				c-1.343,0-2.505,0.483-3.461,1.439c-1.058,1.056-1.593,2.443-1.593,4.12c0,1.707,0.535,3.099,1.592,4.142
				c0.968,0.941,2.135,1.419,3.462,1.419c1.341,0,2.541-0.537,3.568-1.59l0.458-0.47v1.227c0,0.208,0.066,0.375,0.206,0.515
				c0.142,0.139,0.313,0.208,0.526,0.208c0.214,0,0.388-0.069,0.527-0.208c0.139-0.14,0.207-0.307,0.207-0.515V8.244
				c0-0.222-0.068-0.398-0.207-0.538c-0.14-0.14-0.313-0.208-0.527-0.208c-0.213,0-0.385,0.068-0.526,0.208
				c-0.14,0.14-0.206,0.316-0.206,0.538v6.041l-0.458-0.469C118.727,12.76,117.527,12.225,116.186,12.225z M116.47,22.007
				c-1.153,0-2.083-0.36-2.763-1.07c-0.735-0.765-1.108-1.826-1.108-3.153c0-0.675,0.104-1.283,0.306-1.809
				c0.579-1.601,1.78-2.414,3.565-2.414c1.394,0,2.627,0.584,3.672,1.737l0.07,0.075v4.822l-0.07,0.076
				C119.097,21.423,117.864,22.007,116.47,22.007z M116.47,14.093c-1.559,0-2.562,0.676-3.068,2.067
				c-0.179,0.471-0.269,1.015-0.269,1.624c0,1.185,0.323,2.122,0.959,2.784c0.582,0.61,1.36,0.908,2.378,0.908
				c1.223,0,2.273-0.486,3.208-1.486v-4.41C118.744,14.58,117.693,14.093,116.47,14.093z"/>
		</g>
		<g>
			<path fill="#F7B52B" d="M132.563,11.958c1.701,0,3.065,0.535,4.09,1.605c1.024,1.085,1.538,2.491,1.538,4.22
				c0,1.73-0.514,3.137-1.538,4.221c-1.024,1.07-2.389,1.604-4.09,1.604c-1.714,0-3.077-0.534-4.089-1.604
				c-1.025-1.069-1.537-2.475-1.537-4.221c0-1.744,0.512-3.15,1.537-4.22C129.486,12.493,130.849,11.958,132.563,11.958z
				 M130.113,20.872c0.343,0.316,0.732,0.547,1.165,0.692c0.432,0.147,0.858,0.22,1.274,0.22c0.418,0,0.842-0.073,1.274-0.22
				c0.433-0.145,0.825-0.374,1.178-0.681c0.792-0.718,1.187-1.758,1.187-3.121c0-1.319-0.395-2.345-1.187-3.079
				c-0.661-0.599-1.473-0.9-2.441-0.9c-1.583,0-2.682,0.711-3.298,2.131c-0.219,0.513-0.329,1.133-0.329,1.857
				c0,0.726,0.11,1.346,0.329,1.858C129.486,20.144,129.767,20.559,130.113,20.872z"/>
			<path fill="#F7B52B" d="M132.563,23.876c-1.782,0-3.222-0.568-4.28-1.689c-1.07-1.114-1.613-2.596-1.613-4.404
				c0-1.807,0.543-3.288,1.613-4.404c1.059-1.12,2.498-1.687,4.28-1.687c1.769,0,3.207,0.567,4.282,1.687
				c1.07,1.133,1.612,2.614,1.612,4.404c0,1.792-0.542,3.273-1.612,4.404C135.77,23.309,134.332,23.876,132.563,23.876z
				 M132.563,12.225c-1.63,0-2.939,0.513-3.896,1.521c-0.973,1.015-1.467,2.374-1.467,4.038c0,1.666,0.494,3.024,1.465,4.038
				c0.955,1.01,2.268,1.523,3.897,1.523c1.618,0,2.929-0.514,3.897-1.523c0.972-1.027,1.465-2.386,1.465-4.038
				c0-1.65-0.493-3.008-1.467-4.038C135.492,12.738,134.181,12.225,132.563,12.225z M132.552,22.051
				c-0.445,0-0.903-0.078-1.361-0.233c-0.467-0.158-0.888-0.41-1.258-0.749c-0.373-0.339-0.68-0.788-0.91-1.334
				c-0.234-0.544-0.354-1.204-0.354-1.963c0-0.758,0.119-1.417,0.354-1.962c0.658-1.522,1.849-2.293,3.54-2.293
				c1.03,0,1.912,0.327,2.62,0.971c0.846,0.783,1.274,1.883,1.274,3.274c0,1.435-0.429,2.551-1.276,3.317
				c-0.379,0.333-0.804,0.581-1.268,0.738C133.457,21.973,132.998,22.051,132.552,22.051z M132.563,14.05
				c-1.479,0-2.478,0.645-3.054,1.972c-0.202,0.475-0.307,1.065-0.307,1.75c0,0.687,0.103,1.277,0.309,1.752
				c0.203,0.477,0.465,0.863,0.781,1.151c0.315,0.289,0.674,0.503,1.071,0.637c0.804,0.273,1.573,0.273,2.379,0.001
				c0.396-0.135,0.761-0.347,1.085-0.63c0.727-0.659,1.096-1.644,1.096-2.921c0-1.237-0.369-2.206-1.101-2.882
				C134.208,14.322,133.47,14.05,132.563,14.05z"/>
		</g>
		<g>
			<path fill="#F6CD85" d="M143.599,12.75c1.23-0.527,2.506-0.792,3.824-0.792c1.496,0,2.653,0.455,3.475,1.363
				c0.732,0.791,1.099,1.781,1.099,2.967v6.223c0,0.277-0.1,0.512-0.296,0.704c-0.199,0.189-0.438,0.284-0.715,0.284
				c-0.279,0-0.514-0.095-0.703-0.284c-0.192-0.192-0.287-0.427-0.287-0.704v-0.571c-0.395,0.41-0.928,0.792-1.594,1.143
				c-0.666,0.352-1.514,0.527-2.539,0.527c-1.011,0-1.854-0.292-2.528-0.877c-0.703-0.617-1.054-1.422-1.054-2.419
				c0-1.084,0.408-1.934,1.23-2.549c0.895-0.674,2.167-1.012,3.824-1.012h2.66v-0.176c0-0.981-0.242-1.682-0.725-2.1
				c-0.484-0.416-1.225-0.625-2.221-0.625c-0.85,0-1.824,0.175-2.923,0.527c-0.118,0.029-0.25,0.044-0.396,0.044
				c-0.148,0-0.301-0.077-0.463-0.231c-0.161-0.154-0.242-0.392-0.242-0.714C143.027,13.154,143.218,12.911,143.599,12.75z
				 M144.281,20.093c0,1.172,0.776,1.757,2.33,1.757c0.688,0,1.33-0.168,1.924-0.505s1.08-0.718,1.461-1.143v-1.846h-2.397
				c-1.04,0-1.853,0.131-2.438,0.395S144.281,19.463,144.281,20.093z"/>
		</g>
		<g>
			<path fill="#F6CD85" d="M159.58,13.629c1.086-1.113,2.338-1.671,3.762-1.671c1.422,0,2.639,0.506,3.648,1.518
				c1.112,1.114,1.67,2.549,1.67,4.308c0,1.789-0.558,3.232-1.67,4.331c-1.026,0.998-2.246,1.494-3.659,1.494
				c-1.417,0-2.665-0.557-3.751-1.669v5.605c0,0.292-0.096,0.535-0.284,0.726c-0.19,0.19-0.429,0.287-0.716,0.287
				c-0.285,0-0.524-0.097-0.713-0.287c-0.191-0.191-0.287-0.433-0.287-0.726V13.058c0-0.279,0.096-0.512,0.287-0.704
				c0.188-0.19,0.428-0.286,0.713-0.286c0.287,0,0.525,0.096,0.716,0.286c0.188,0.192,0.284,0.425,0.284,0.704V13.629z
				 M159.58,20.093c0.996,1.098,2.154,1.648,3.475,1.648c1.67,0,2.783-0.747,3.342-2.242c0.176-0.498,0.263-1.07,0.263-1.715
				c0-1.259-0.337-2.249-1.011-2.967c-0.646-0.659-1.51-0.989-2.594-0.989c-1.32,0-2.479,0.549-3.475,1.648V20.093z"/>
		</g>
		<g>
			<path fill="#F6CD85" d="M174.068,12.75c1.23-0.527,2.507-0.792,3.826-0.792c1.494,0,2.65,0.455,3.472,1.363
				c0.732,0.791,1.099,1.781,1.099,2.967v6.223c0,0.277-0.098,0.512-0.295,0.704c-0.199,0.189-0.438,0.284-0.717,0.284
				c-0.277,0-0.512-0.095-0.701-0.284c-0.191-0.192-0.287-0.427-0.287-0.704v-0.571c-0.396,0.41-0.926,0.792-1.594,1.143
				c-0.668,0.352-1.513,0.527-2.538,0.527c-1.013,0-1.854-0.292-2.528-0.877c-0.703-0.617-1.056-1.422-1.056-2.419
				c0-1.084,0.41-1.934,1.231-2.549c0.893-0.674,2.169-1.012,3.824-1.012h2.66v-0.176c0-0.981-0.241-1.682-0.726-2.1
				c-0.483-0.416-1.224-0.625-2.22-0.625c-0.852,0-1.823,0.175-2.925,0.527c-0.116,0.029-0.247,0.044-0.395,0.044
				c-0.146,0-0.301-0.077-0.462-0.231c-0.162-0.154-0.242-0.392-0.242-0.714C173.496,13.154,173.686,12.911,174.068,12.75z
				 M174.748,20.093c0,1.172,0.777,1.757,2.332,1.757c0.688,0,1.33-0.168,1.922-0.505c0.595-0.337,1.082-0.718,1.463-1.143v-1.846
				h-2.396c-1.041,0-1.854,0.131-2.441,0.395C175.042,19.016,174.748,19.463,174.748,20.093z"/>
		</g>
		<g>
			<path fill="#F6CD85" d="M190.048,14.024c1.025-1.376,2.178-2.066,3.453-2.066h0.108c0.278,0,0.509,0.095,0.693,0.287
				c0.183,0.189,0.273,0.429,0.273,0.713c0,0.287-0.095,0.514-0.284,0.682c-0.191,0.169-0.434,0.252-0.727,0.252h-0.109
				c-0.733,0-1.387,0.181-1.966,0.54c-0.579,0.359-1.06,0.825-1.442,1.396v6.683c0,0.277-0.098,0.512-0.296,0.704
				c-0.198,0.189-0.437,0.284-0.715,0.284s-0.513-0.095-0.703-0.284c-0.19-0.192-0.286-0.427-0.286-0.704V13.08
				c0-0.278,0.096-0.516,0.286-0.714c0.19-0.198,0.425-0.297,0.703-0.297s0.517,0.099,0.715,0.297
				c0.198,0.198,0.296,0.436,0.296,0.714V14.024z"/>
		</g>
		<g>
			<path fill="#F6CD85" d="M202.855,21.85c0.389,0,0.666-0.032,0.835-0.098c0.168-0.066,0.351-0.099,0.55-0.099
				c0.197,0,0.377,0.073,0.538,0.22s0.242,0.366,0.242,0.659s-0.146,0.506-0.44,0.638c-0.629,0.293-1.168,0.439-1.614,0.439
				c-0.448,0-0.854-0.021-1.222-0.065c-0.366-0.044-0.717-0.168-1.055-0.374c-0.805-0.469-1.209-1.288-1.209-2.462v-6.816h-1.561
				c-0.279,0-0.418-0.138-0.418-0.417c0-0.131,0.064-0.256,0.197-0.375l2.99-2.923c0.133-0.131,0.256-0.197,0.375-0.197
				c0.116,0,0.215,0.044,0.295,0.132c0.081,0.088,0.121,0.19,0.121,0.307v1.759h2.484c0.249,0,0.455,0.081,0.615,0.242
				c0.162,0.161,0.242,0.366,0.242,0.615s-0.08,0.455-0.242,0.615c-0.16,0.162-0.366,0.241-0.615,0.241h-2.484v6.64
				c0,0.558,0.169,0.939,0.506,1.144C202.175,21.792,202.466,21.85,202.855,21.85z"/>
		</g>
		<g>
			<path fill="#F6CD85" d="M215,13.805c-1.291,0-2.49,0.703-3.605,2.11v6.596c0,0.277-0.099,0.512-0.296,0.704
				c-0.197,0.189-0.438,0.284-0.716,0.284c-0.277,0-0.511-0.095-0.703-0.284c-0.189-0.192-0.285-0.427-0.285-0.704V8.244
				c0-0.293,0.096-0.535,0.285-0.727c0.192-0.189,0.426-0.286,0.703-0.286c0.278,0,0.519,0.096,0.716,0.286
				c0.197,0.192,0.296,0.434,0.296,0.727v5.738c0.586-0.617,1.093-1.049,1.518-1.298c0.836-0.484,1.631-0.726,2.385-0.726
				s1.373,0.114,1.857,0.341c0.484,0.228,0.893,0.539,1.232,0.935c0.688,0.806,1.032,1.817,1.032,3.033v6.244
				c0,0.277-0.1,0.512-0.296,0.704c-0.199,0.189-0.437,0.284-0.715,0.284c-0.28,0-0.514-0.095-0.704-0.284
				c-0.19-0.192-0.284-0.427-0.284-0.704v-6.024c0-0.836-0.189-1.491-0.562-1.967C216.485,14.043,215.865,13.805,215,13.805z"/>
		</g>
		<g>
			<path fill="#F6CD85" d="M229.925,11.958c1.7,0,3.064,0.535,4.09,1.605c1.026,1.085,1.54,2.491,1.54,4.22
				c0,1.73-0.514,3.137-1.54,4.221c-1.025,1.07-2.39,1.604-4.09,1.604c-1.713,0-3.074-0.534-4.086-1.604
				c-1.027-1.069-1.54-2.475-1.54-4.221c0-1.744,0.513-3.15,1.54-4.22C226.851,12.493,228.212,11.958,229.925,11.958z
				 M227.476,20.872c0.344,0.316,0.731,0.547,1.164,0.692c0.431,0.147,0.859,0.22,1.276,0.22s0.841-0.073,1.272-0.22
				c0.434-0.145,0.827-0.374,1.177-0.681c0.793-0.718,1.188-1.758,1.188-3.121c0-1.319-0.395-2.345-1.188-3.079
				c-0.659-0.599-1.472-0.9-2.44-0.9c-1.581,0-2.68,0.711-3.297,2.131c-0.22,0.513-0.33,1.133-0.33,1.857
				c0,0.726,0.11,1.346,0.33,1.858C226.851,20.144,227.13,20.559,227.476,20.872z"/>
		</g>
		<g>
			<path fill="#F6CD85" d="M244.556,21.85c0.389,0,0.668-0.032,0.836-0.098c0.169-0.066,0.351-0.099,0.549-0.099
				c0.199,0,0.379,0.073,0.537,0.22c0.162,0.147,0.242,0.366,0.242,0.659s-0.146,0.506-0.438,0.638
				c-0.631,0.293-1.17,0.439-1.617,0.439c-0.445,0-0.854-0.021-1.22-0.065c-0.368-0.044-0.718-0.168-1.056-0.374
				c-0.806-0.469-1.209-1.288-1.209-2.462v-6.816h-1.56c-0.278,0-0.417-0.138-0.417-0.417c0-0.131,0.064-0.256,0.197-0.375
				l2.988-2.923c0.132-0.131,0.258-0.197,0.374-0.197s0.216,0.044,0.296,0.132c0.082,0.088,0.121,0.19,0.121,0.307v1.759h2.485
				c0.247,0,0.453,0.081,0.616,0.242c0.16,0.161,0.24,0.366,0.24,0.615s-0.08,0.455-0.24,0.615
				c-0.163,0.162-0.369,0.241-0.616,0.241h-2.485v6.64c0,0.558,0.168,0.939,0.507,1.144C243.878,21.792,244.167,21.85,244.556,21.85
				z"/>
		</g>
		<g>
			<path fill="#F6CD85" d="M253.58,20.862c0.631,0.586,1.51,0.879,2.638,0.879c1.13,0,2.073-0.19,2.836-0.572
				c0.264-0.131,0.493-0.197,0.681-0.197c0.191,0,0.375,0.081,0.553,0.241c0.174,0.163,0.263,0.346,0.263,0.55
				c0,0.382-0.158,0.657-0.474,0.825c-0.316,0.168-0.598,0.312-0.846,0.428c-0.25,0.118-0.521,0.221-0.814,0.308
				c-0.658,0.19-1.421,0.285-2.285,0.285c-1.803,0-3.203-0.504-4.199-1.517c-0.997-1.012-1.494-2.447-1.494-4.309
				c0-1.612,0.418-2.952,1.253-4.022c0.938-1.202,2.271-1.803,4-1.803c1.642,0,2.938,0.558,3.892,1.671
				c0.893,1.041,1.342,2.331,1.342,3.869c0,0.28-0.092,0.514-0.276,0.704c-0.182,0.19-0.429,0.285-0.735,0.285h-7.453
				C252.576,19.485,252.949,20.275,253.58,20.862z M255.69,13.651c-1.303,0-2.257,0.579-2.857,1.737
				c-0.22,0.41-0.345,0.9-0.374,1.474h6.486c-0.06-1.041-0.439-1.862-1.145-2.462C257.215,13.9,256.511,13.651,255.69,13.651z"/>
		</g>
		<g>
			<path fill="#F6CD85" d="M266.286,7.517c0.19-0.189,0.43-0.286,0.714-0.286c0.287,0,0.524,0.096,0.715,0.286
				c0.191,0.192,0.287,0.434,0.287,0.727v14.267c0,0.277-0.096,0.512-0.287,0.704c-0.19,0.189-0.428,0.284-0.715,0.284
				c-0.284,0-0.523-0.095-0.714-0.284c-0.19-0.192-0.284-0.427-0.284-0.704V8.244C266.001,7.951,266.095,7.709,266.286,7.517z"/>
		</g>
	</g>
	<g>
		<circle fill="#54B4B3" cx="25.203" cy="7.704" r="2.133"/>
		<circle fill="#54B4B3" cx="3.132" cy="27.504" r="2.134"/>
		<circle fill="#54B4B3" cx="16.634" cy="3.634" r="2.729"/>
		<circle fill="#54B4B3" cx="15.013" cy="17.761" r="2.729"/>
		<circle fill="#54B4B3" cx="13.341" cy="32.367" r="2.728"/>
		<circle fill="#54B4B3" cx="5.265" cy="10.405" r="4.042"/>
		<circle fill="#54B4B3" cx="25.203" cy="25.75" r="4.043"/>
	</g>
</g>
</svg>
